<?xml version="1.0" encoding="UTF-8" standalone="no"?><!DOCTYPE svg PUBLIC "-//W3C//DTD SVG 1.1//EN" "http://www.w3.org/Graphics/SVG/1.1/DTD/svg11.dtd"><svg width="100%" height="100%" viewBox="0 0 2122 2122" version="1.1" xmlns="http://www.w3.org/2000/svg" xmlns:xlink="http://www.w3.org/1999/xlink" xml:space="preserve" xmlns:serif="http://www.serif.com/" style="fill-rule:evenodd;clip-rule:evenodd;stroke-linejoin:round;stroke-miterlimit:2;"><g><path d="M765.977,758.828c86.265,-21.652 153.14,-17.769 204.293,11.953c6.082,3.535 11.898,7.418 17.515,11.172c10.887,7.277 21.175,14.152 32.395,17.957c32.04,10.856 65.58,-3.758 101.1,-19.219c14.56,-6.343 29.62,-12.902 44.77,-17.687c35.15,-11.102 73.42,-11.988 109.5,-3.641l38.04,-73.777l-614.68,-4.875l67.067,78.117Z" style="fill:#fff;fill-rule:nonzero;"/><path d="M1367.64,700.145c-2.35,0.289 -4.72,0.425 -7.09,0.425c-8.16,-0 -16.34,-1.757 -24.1,-4.898l-36.56,70.887c14.24,5.148 27.88,11.8 40.59,19.949l83.59,-100.047l-18.82,-0.148c-1.73,0.898 -3.47,1.769 -5.18,2.609c-10.4,5.101 -20.7,9.797 -32.43,11.223Z" style="fill:#fff;fill-rule:nonzero;"/><path d="M1173.56,786.789c-13.9,4.395 -28.35,10.684 -42.33,16.77c-38.3,16.683 -77.92,33.929 -119.06,19.976c-14.338,-4.863 -26.49,-12.988 -38.248,-20.84c-5.543,-3.707 -10.777,-7.207 -16.184,-10.347c-42.3,-24.578 -98.144,-28.879 -170.254,-13.012l281.366,332.084l253.01,-307.182c-43.96,-26.058 -99.57,-32.832 -148.3,-17.449Z" style="fill:#fff;fill-rule:nonzero;"/><path d="M1364.62,675.383c7.88,-0.957 15.73,-4.574 24.45,-8.852c11.55,-5.672 23.22,-12.027 28,-21.707c2.84,-5.773 3.64,-13.605 2.51,-24.64c-1.95,-19.098 -9.49,-33.907 -21.2,-41.696c-6.56,-4.363 -14.41,-6.554 -23.22,-6.554c-6.06,-0 -12.58,1.039 -19.45,3.125c-12.43,3.777 -23.46,12.203 -31.68,19.121c-3.53,2.968 -7.11,6.148 -8.85,9.547c-1.52,2.968 -2.18,7.187 -2.06,13.273c0.31,16.656 5.47,31.73 14.55,42.441c9.53,11.258 24.1,17.516 36.95,15.942Z" style="fill:#fff;fill-rule:nonzero;"/><path d="M1111.97,1564.56c-18.14,-8.85 -37.28,-13.35 -55.53,-13.27c-31.4,0.3 -64.206,14.7 -92.377,40.57c-21.973,20.16 -39.18,45.07 -53.364,68.91c21.699,0.22 50.156,0.03 72.59,-0.11c11.402,-0.07 21.211,-0.14 28.141,-0.14c3.51,-0 6.27,0.02 8.12,0.05c35.87,0.77 134.2,4.05 176.71,5.49c-3.89,-8.17 -9.53,-19.66 -17.6,-35.37c-14.86,-28.91 -38.53,-52.39 -66.69,-66.13Z" style="fill:#fff;fill-rule:nonzero;"/><path d="M1313.59,685.586l-38.04,73.777c-36.08,-8.347 -74.35,-7.461 -109.5,3.641c-15.15,4.785 -30.21,11.344 -44.77,17.687c-35.52,15.461 -69.06,30.075 -101.1,19.219c-11.22,-3.805 -21.508,-10.68 -32.395,-17.957c-5.617,-3.754 -11.433,-7.637 -17.515,-11.172c-51.153,-29.722 -118.028,-33.605 -204.293,-11.953l-67.067,-78.117l614.68,4.875Zm-526.106,93.75c72.11,-15.867 127.954,-11.566 170.254,13.012c5.407,3.14 10.641,6.64 16.184,10.347c11.758,7.852 23.91,15.977 38.248,20.84c41.14,13.953 80.76,-3.293 119.06,-19.976c13.98,-6.086 28.43,-12.375 42.33,-16.77c48.73,-15.383 104.34,-8.609 148.3,17.449l-253.01,307.182l-281.366,-332.084Zm636.586,-92.875l-83.59,100.047c-12.71,-8.149 -26.35,-14.801 -40.59,-19.949l36.56,-70.887c7.76,3.141 15.94,4.898 24.1,4.898c2.37,-0 4.74,-0.136 7.09,-0.425c11.73,-1.426 22.03,-6.122 32.43,-11.223c1.71,-0.84 3.45,-1.711 5.18,-2.609l18.82,0.148Zm-96.4,-27.02c-9.08,-10.711 -14.24,-25.785 -14.55,-42.441c-0.12,-6.086 0.54,-10.305 2.06,-13.273c1.74,-3.399 5.32,-6.579 8.85,-9.547c8.22,-6.918 19.25,-15.344 31.68,-19.121c6.87,-2.086 13.39,-3.125 19.45,-3.125c8.81,-0 16.66,2.191 23.22,6.554c11.71,7.789 19.25,22.598 21.2,41.696c1.13,11.035 0.33,18.867 -2.51,24.64c-4.78,9.68 -16.45,16.035 -28,21.707c-8.72,4.278 -16.57,7.895 -24.45,8.852c-12.85,1.574 -27.42,-4.684 -36.95,-15.942Zm-308.12,1001.13c-1.85,-0.03 -4.61,-0.05 -8.12,-0.05c-6.93,-0 -16.739,0.07 -28.141,0.14c-22.434,0.14 -50.891,0.33 -72.59,0.11c14.184,-23.84 31.391,-48.75 53.364,-68.91c28.171,-25.87 60.977,-40.27 92.377,-40.57c18.25,-0.08 37.39,4.42 55.53,13.27c28.16,13.74 51.83,37.22 66.69,66.13c8.07,15.71 13.71,27.2 17.6,35.37c-42.51,-1.44 -140.84,-4.72 -176.71,-5.49Zm181.3,-41.28c-17.3,-33.67 -44.97,-61.07 -77.95,-77.15c-15.72,-7.68 -32.21,-12.58 -48.53,-14.65l7.01,-392l395.69,-473.556l-40.98,-0.325c1.22,-1.816 2.35,-3.726 3.35,-5.757c6.58,-13.356 5.98,-28.207 4.96,-38.211c-2.43,-23.676 -11.76,-43.075 -26.45,-55.528l57.47,-122.508l-11.29,-5.296l-11.3,-5.293l-56.81,121.101c-14.18,-4.429 -30.29,-4.164 -47.56,1.071c-16.78,5.101 -30.46,15.457 -40.5,23.91c-5.23,4.406 -11.13,9.734 -14.98,17.261c-4.55,8.899 -4.92,18.586 -4.81,25.11c0.31,15.656 4.01,30.41 10.54,43.051l-654.468,-5.184l412.188,480.054l-7,391.21c-35.42,2.17 -71.469,18.64 -102.235,46.88c-30.238,27.75 -51.679,62.72 -68.664,93.26l-9.863,17.74l20.277,0.79c20.953,0.82 63.473,0.53 94.504,0.33c16.309,-0.1 30.391,-0.2 35.571,-0.08c45.91,0.98 194.86,6.09 196.37,6.15l18.53,0.63l-6.4,-17.4c-0.2,-0.52 -4.99,-13.38 -26.67,-55.61Z" style="fill-rule:nonzero;"/></g></svg>